<svg version="1.1" xmlns="http://www.w3.org/2000/svg" xmlns:xlink="http://www.w3.org/1999/xlink">

    <symbol id="Ico-cart" viewBox="0 0 18 24">
        <g><g><path d="M17.994 5.997v14.998a3 3 0 0 1-2.999 3H3.002a3 3 0 0 1-2.999-3V5.997A2.999 2.999 0 0 1 3.002 3H4.5c0-1.657 2.013-3 4.498-3 2.484 0 4.497 1.343 4.497 3h1.5a2.999 2.999 0 0 1 2.998 2.998zM6 3h5.997c0-1.037-1.342-1.5-2.998-1.5-1.656 0-2.999.463-2.999 1.5zm10.495 16.496H1.502v1.5c0 .828.672 1.5 1.5 1.5h11.993a1.5 1.5 0 0 0 1.5-1.5zm0-13.498a1.5 1.5 0 0 0-1.5-1.5h-1.499v4.5h-1.499v-4.5H6v4.5H4.501v-4.5h-1.5a1.5 1.5 0 0 0-1.499 1.5v11.998h14.993z"/><path  d="M17.994 5.997v14.998a3 3 0 0 1-2.999 3H3.002a3 3 0 0 1-2.999-3V5.997A2.999 2.999 0 0 1 3.002 3H4.5c0-1.657 2.013-3 4.498-3 2.484 0 4.497 1.343 4.497 3h1.5a2.999 2.999 0 0 1 2.998 2.998zM6 3h5.997c0-1.037-1.342-1.5-2.998-1.5-1.656 0-2.999.463-2.999 1.5zm10.495 16.496H1.502v1.5c0 .828.672 1.5 1.5 1.5h11.993a1.5 1.5 0 0 0 1.5-1.5zm0-13.498a1.5 1.5 0 0 0-1.5-1.5h-1.499v4.5h-1.499v-4.5H6v4.5H4.501v-4.5h-1.5a1.5 1.5 0 0 0-1.499 1.5v11.998h14.993z"/></g></g>
    </symbol>

    <symbol id="Ico-search" viewBox="0 0 24 24">
        <g><g><path d="M23.761 23.763a.785.785 0 0 1-1.098 0l-6.217-6.12a10.155 10.155 0 0 1-6.353 2.22C4.52 19.862.001 15.415.001 9.928 0 4.443 4.519-.002 10.093-.002c5.575 0 10.093 4.445 10.094 9.93 0 2.565-.997 4.897-2.618 6.658l6.193 6.095a.758.758 0 0 1 0 1.082zM18.633 9.93c0-4.641-3.823-8.404-8.54-8.404-4.716 0-8.54 3.763-8.54 8.404 0 4.643 3.824 8.405 8.54 8.405 4.717 0 8.54-3.762 8.54-8.405z"/><path  d="M23.761 23.763a.785.785 0 0 1-1.098 0l-6.217-6.12a10.155 10.155 0 0 1-6.353 2.22C4.52 19.862.001 15.415.001 9.928 0 4.443 4.519-.002 10.093-.002c5.575 0 10.093 4.445 10.094 9.93 0 2.565-.997 4.897-2.618 6.658l6.193 6.095a.758.758 0 0 1 0 1.082zM18.633 9.93c0-4.641-3.823-8.404-8.54-8.404-4.716 0-8.54 3.763-8.54 8.404 0 4.643 3.824 8.405 8.54 8.405 4.717 0 8.54-3.762 8.54-8.405z"/></g></g>
    </symbol>

    <symbol id="Ico-pencil" viewBox="0 0 49 49">
        <g><g><path d="M47.668 19.717L33.402 33.985.534 48.463l14.477-32.872L29.279 1.327a1.589 1.589 0 1 1 2.248 2.249L17.683 17.422 9.107 36.888l2.999 2.999 19.467-8.573L45.42 17.47a1.587 1.587 0 0 1 2.248 0c.621.62.621 1.63 0 2.247zm-20.173 6.5l13.332-13.332a1.585 1.585 0 0 1 2.25 0c.623.62.623 1.625 0 2.249L29.745 28.466a1.594 1.594 0 0 1-2.25 0 1.593 1.593 0 0 1 0-2.25zm-3.48-3.482L37.348 9.403a1.59 1.59 0 1 1 2.25 2.25L26.265 24.985a1.592 1.592 0 0 1-2.25-2.25zm-3.48-3.482l13.332-13.33a1.586 1.586 0 0 1 2.25 0c.622.62.622 1.625 0 2.25l-13.333 13.33c-.31.31-.719.465-1.125.465s-.814-.154-1.125-.466a1.591 1.591 0 0 1 0-2.249z"/><path  d="M47.668 19.717L33.402 33.985.534 48.463l14.477-32.872L29.279 1.327a1.589 1.589 0 1 1 2.248 2.249L17.683 17.422 9.107 36.888l2.999 2.999 19.467-8.573L45.42 17.47a1.587 1.587 0 0 1 2.248 0c.621.62.621 1.63 0 2.247zm-20.173 6.5l13.332-13.332a1.585 1.585 0 0 1 2.25 0c.623.62.623 1.625 0 2.249L29.745 28.466a1.594 1.594 0 0 1-2.25 0 1.593 1.593 0 0 1 0-2.25zm-3.48-3.482L37.348 9.403a1.59 1.59 0 1 1 2.25 2.25L26.265 24.985a1.592 1.592 0 0 1-2.25-2.25zm-3.48-3.482l13.332-13.33a1.586 1.586 0 0 1 2.25 0c.622.62.622 1.625 0 2.25l-13.333 13.33c-.31.31-.719.465-1.125.465s-.814-.154-1.125-.466a1.591 1.591 0 0 1 0-2.249z"/></g></g>
    </symbol>

    <symbol id="Ico-gear" viewBox="0 0 44 44">
        <g><g><path d="M41.322 25.71c-1.44.513-2.837 1.762-3.243 2.743-.406.98-.298 2.85.357 4.23.656 1.379.259 3.427-.886 4.572-1.146 1.147-3.194 1.544-4.573.887-1.38-.656-3.252-.764-4.233-.356-.98.41-2.227 1.808-2.739 3.246-.512 1.436-2.241 2.601-3.861 2.601s-3.35-1.165-3.862-2.6c-.512-1.439-1.759-2.837-2.74-3.244-.982-.408-2.852-.303-4.232.353-1.38.657-3.427.26-4.573-.887-1.145-1.145-1.542-3.193-.886-4.572s.763-3.249.355-4.23c-.408-.979-1.8-2.23-3.24-2.742C1.526 25.199.36 23.47.36 21.85c0-1.62 1.166-3.35 2.606-3.857 1.44-.51 2.83-1.761 3.238-2.743.407-.984.303-2.853-.353-4.233-.656-1.38-.26-3.426.886-4.574 1.146-1.146 3.195-1.541 4.573-.885 1.38.656 3.25.764 4.231.357.981-.406 2.23-1.803 2.741-3.242.512-1.439 2.241-2.606 3.862-2.606 1.62 0 3.35 1.167 3.861 2.606.512 1.44 1.76 2.837 2.74 3.242.982.407 2.852.3 4.232-.357 1.38-.656 3.427-.261 4.573.885 1.145 1.148 1.542 3.195.886 4.574-.655 1.379-.76 3.252-.355 4.234.406.984 1.8 2.232 3.24 2.742 1.44.508 2.606 2.237 2.606 3.857s-1.166 3.349-2.605 3.86zM30.128 21.86c0-4.419-3.574-7.994-7.984-7.994a7.988 7.988 0 0 0-7.994 7.994 7.984 7.984 0 0 0 7.994 7.983 7.981 7.981 0 0 0 7.984-7.983z"/><path d="M41.322 25.71c-1.44.513-2.837 1.762-3.243 2.743-.406.98-.298 2.85.357 4.23.656 1.379.259 3.427-.886 4.572-1.146 1.147-3.194 1.544-4.573.887-1.38-.656-3.252-.764-4.233-.356-.98.41-2.227 1.808-2.739 3.246-.512 1.436-2.241 2.601-3.861 2.601s-3.35-1.165-3.862-2.6c-.512-1.439-1.759-2.837-2.74-3.244-.982-.408-2.852-.303-4.232.353-1.38.657-3.427.26-4.573-.887-1.145-1.145-1.542-3.193-.886-4.572s.763-3.249.355-4.23c-.408-.979-1.8-2.23-3.24-2.742C1.526 25.199.36 23.47.36 21.85c0-1.62 1.166-3.35 2.606-3.857 1.44-.51 2.83-1.761 3.238-2.743.407-.984.303-2.853-.353-4.233-.656-1.38-.26-3.426.886-4.574 1.146-1.146 3.195-1.541 4.573-.885 1.38.656 3.25.764 4.231.357.981-.406 2.23-1.803 2.741-3.242.512-1.439 2.241-2.606 3.862-2.606 1.62 0 3.35 1.167 3.861 2.606.512 1.44 1.76 2.837 2.74 3.242.982.407 2.852.3 4.232-.357 1.38-.656 3.427-.261 4.573.885 1.145 1.148 1.542 3.195.886 4.574-.655 1.379-.76 3.252-.355 4.234.406.984 1.8 2.232 3.24 2.742 1.44.508 2.606 2.237 2.606 3.857s-1.166 3.349-2.605 3.86zM30.128 21.86c0-4.419-3.574-7.994-7.984-7.994a7.988 7.988 0 0 0-7.994 7.994 7.984 7.984 0 0 0 7.994 7.983 7.981 7.981 0 0 0 7.984-7.983z"/></g></g>
    </symbol>

    <symbol id="Ico-layers" viewBox="0 0 44 40">
        <g><g><path d="M43.287 11.666L21.851 23.227.414 11.666 21.85.106zm-3.985 5.882l3.985 2.149-21.436 11.556L.414 19.697l3.985-2.15 17.452 9.41zm0 8.025l3.985 2.148-21.436 11.562L.414 27.721l3.985-2.148 17.452 9.412z"/><path  d="M43.287 11.666L21.851 23.227.414 11.666 21.85.106zm-3.985 5.882l3.985 2.149-21.436 11.556L.414 19.697l3.985-2.15 17.452 9.41zm0 8.025l3.985 2.148-21.436 11.562L.414 27.721l3.985-2.148 17.452 9.412z"/></g></g>
    </symbol>

    <symbol id="Ico-folder" viewBox="0 0 52 36">
        <g><g><path d="M.738 30.147V7.983c0-1.364 1.105-2.482 2.458-2.48h10.816V4.057c0-.995.382-1.923 1.082-2.628A3.64 3.64 0 0 1 17.7.335h6.29c2.029 0 3.684 1.667 3.684 3.723V5.5H38.49c1.35 0 2.458 1.118 2.458 2.482v1.654H14.742c-2.267 0-4.74 1.55-5.742 3.608zM16.47 5.502h8.747V4.058c0-.688-.55-1.243-1.228-1.243h-6.29c-.327 0-.636.13-.867.368a1.25 1.25 0 0 0-.362.875zm25.451 28.26c-.595 1.222-2.192 2.222-3.543 2.222H3.08c-1.35 0-1.968-1.002-1.369-2.221l9.492-19.422c.593-1.223 2.189-2.226 3.539-2.226H50.04c1.354 0 1.969 1.003 1.371 2.226z"/><path  d="M.738 30.147V7.983c0-1.364 1.105-2.482 2.458-2.48h10.816V4.057c0-.995.382-1.923 1.082-2.628A3.64 3.64 0 0 1 17.7.335h6.29c2.029 0 3.684 1.667 3.684 3.723V5.5H38.49c1.35 0 2.458 1.118 2.458 2.482v1.654H14.742c-2.267 0-4.74 1.55-5.742 3.608zM16.47 5.502h8.747V4.058c0-.688-.55-1.243-1.228-1.243h-6.29c-.327 0-.636.13-.867.368a1.25 1.25 0 0 0-.362.875zm25.451 28.26c-.595 1.222-2.192 2.222-3.543 2.222H3.08c-1.35 0-1.968-1.002-1.369-2.221l9.492-19.422c.593-1.223 2.189-2.226 3.539-2.226H50.04c1.354 0 1.969 1.003 1.371 2.226z"/></g></g>
    </symbol>

    <symbol id="Ico-link" viewBox="0 0 26 26">
        <g><g><path d="M23.5 11.242l-1.927 1.928-3.187 3.189c-.153.17-.34.324-.511.46a6.24 6.24 0 0 1-6.153.905 6.038 6.038 0 0 1-2.08-1.365l2.642-2.644a2.446 2.446 0 0 0 3.46 0l2.028-2.029L20.857 8.6a2.447 2.447 0 1 0-3.46-3.462l-2.454 2.456a7.068 7.068 0 0 0-4.908-.376l4.72-4.723c2.404-2.405 6.341-2.405 8.744 0 2.42 2.42 2.42 6.343 0 8.748zm-7.654 7.607l-4.618 4.672c-2.403 2.406-6.34 2.406-8.744 0-2.403-2.404-2.403-6.343 0-8.747l5.113-5.118c.068-.067.154-.153.239-.221a6.191 6.191 0 0 1 6.426-1.142c.75.29 1.465.75 2.079 1.363l-2.642 2.645a2.446 2.446 0 0 0-3.46 0l-5.113 5.115a2.447 2.447 0 1 0 3.46 3.463l2.352-2.355c2.011.803 2.557.87 4.908.325z"/><path d="M23.5 11.242l-1.927 1.928-3.187 3.189c-.153.17-.34.324-.511.46a6.24 6.24 0 0 1-6.153.905 6.038 6.038 0 0 1-2.08-1.365l2.642-2.644a2.446 2.446 0 0 0 3.46 0l2.028-2.029L20.857 8.6a2.447 2.447 0 1 0-3.46-3.462l-2.454 2.456a7.068 7.068 0 0 0-4.908-.376l4.72-4.723c2.404-2.405 6.341-2.405 8.744 0 2.42 2.42 2.42 6.343 0 8.748zm-7.654 7.607l-4.618 4.672c-2.403 2.406-6.34 2.406-8.744 0-2.403-2.404-2.403-6.343 0-8.747l5.113-5.118c.068-.067.154-.153.239-.221a6.191 6.191 0 0 1 6.426-1.142c.75.29 1.465.75 2.079 1.363l-2.642 2.645a2.446 2.446 0 0 0-3.46 0l-5.113 5.115a2.447 2.447 0 1 0 3.46 3.463l2.352-2.355c2.011.803 2.557.87 4.908.325z"/></g></g>    
    </symbol>

    <symbol id="Ico-loupe" viewBox="0 0 26 25">
        <g><g><path d="M17.417 7.847c.318.644.047 1.42-.607 1.734-.185.087-.381.13-.576.13-.487 0-.954-.267-1.182-.728a4.147 4.147 0 0 0-3.748-2.31c-.726 0-1.315-.579-1.315-1.296 0-.714.589-1.295 1.315-1.295 2.62 0 4.964 1.443 6.113 3.765zm8.04 16.325a1.647 1.647 0 0 1-1.164.474 1.65 1.65 0 0 1-1.163-.474L18.795 19.9a11.218 11.218 0 0 1-6.836 2.317C5.793 22.218.777 17.276.777 11.202S5.793.186 11.96.186 23.14 5.128 23.14 11.202c0 2.37-.77 4.562-2.068 6.361l4.383 4.318a1.602 1.602 0 0 1 0 2.29zM11.96 19.627c2.104 0 4.03-.756 5.521-2.003.46-.384.874-.819 1.243-1.288a8.288 8.288 0 0 0 1.786-5.134c0-4.645-3.836-8.424-8.55-8.424-4.715 0-8.551 3.78-8.551 8.424 0 4.645 3.836 8.424 8.55 8.425z"/><path d="M17.417 7.847c.318.644.047 1.42-.607 1.734-.185.087-.381.13-.576.13-.487 0-.954-.267-1.182-.728a4.147 4.147 0 0 0-3.748-2.31c-.726 0-1.315-.579-1.315-1.296 0-.714.589-1.295 1.315-1.295 2.62 0 4.964 1.443 6.113 3.765zm8.04 16.325a1.647 1.647 0 0 1-1.164.474 1.65 1.65 0 0 1-1.163-.474L18.795 19.9a11.218 11.218 0 0 1-6.836 2.317C5.793 22.218.777 17.276.777 11.202S5.793.186 11.96.186 23.14 5.128 23.14 11.202c0 2.37-.77 4.562-2.068 6.361l4.383 4.318a1.602 1.602 0 0 1 0 2.29zM11.96 19.627c2.104 0 4.03-.756 5.521-2.003.46-.384.874-.819 1.243-1.288a8.288 8.288 0 0 0 1.786-5.134c0-4.645-3.836-8.424-8.55-8.424-4.715 0-8.551 3.78-8.551 8.424 0 4.645 3.836 8.424 8.55 8.425z"/></g></g>
    </symbol>

    <symbol id="Ico-play" viewBox="0 0 70 70">
        <g><g><path d="M29.934 51.82a2.06 2.06 0 0 1-2.06-2.06V20.235a2.06 2.06 0 0 1 3.379-1.582l17.714 14.762a2.059 2.059 0 0 1 0 3.165L31.253 51.343a2.06 2.06 0 0 1-1.32.477zm2.06-27.187v20.73l12.437-10.366zm2.943 45.365a34.807 34.807 0 0 1-17.106-4.47 2.06 2.06 0 1 1 2.02-3.59c12.019 6.765 27.231 4.673 36.994-5.093 12.047-12.047 12.047-31.648 0-43.695-12.047-12.049-31.649-12.048-43.695 0-12.046 12.047-12.046 31.648 0 43.695a2.06 2.06 0 0 1-2.913 2.914c-13.653-13.654-13.653-35.869 0-49.523 13.654-13.652 35.867-13.653 49.522 0 13.653 13.654 13.653 35.869 0 49.523C53.033 66.484 44.026 70 34.937 70z"/><path d="M29.934 51.82a2.06 2.06 0 0 1-2.06-2.06V20.235a2.06 2.06 0 0 1 3.379-1.582l17.714 14.762a2.059 2.059 0 0 1 0 3.165L31.253 51.343a2.06 2.06 0 0 1-1.32.477zm2.06-27.187v20.73l12.437-10.366zm2.943 45.365a34.807 34.807 0 0 1-17.106-4.47 2.06 2.06 0 1 1 2.02-3.59c12.019 6.765 27.231 4.673 36.994-5.093 12.047-12.047 12.047-31.648 0-43.695-12.047-12.049-31.649-12.048-43.695 0-12.046 12.047-12.046 31.648 0 43.695a2.06 2.06 0 0 1-2.913 2.914c-13.653-13.654-13.653-35.869 0-49.523 13.654-13.652 35.867-13.653 49.522 0 13.653 13.654 13.653 35.869 0 49.523C53.033 66.484 44.026 70 34.937 70z"/></g></g>
    </symbol>

    <symbol id="mainLogo" viewBox="0 0 64 56">
        <g><g><path d="M31.854 19.905L26.6 10.713h10.508zm-1.314.766H20.032l5.254-9.191zm2.628 0l5.254-9.191 5.254 9.191zm10.508 1.53l-5.254 9.189-5.254-9.188zm-13.136 0l-5.254 9.189-5.254-9.188zm-11.822.766l5.253 9.187H13.465zm21.02 9.187l5.252-9.187 5.253 9.187zm-2.63-22.97H26.6l5.254-9.19zm2.63 24.502h10.505l-5.253 9.188zm-26.273 0H23.97l-5.253 9.188zm-1.314.765l5.253 9.19H6.897zm34.152 9.19l5.254-9.19 5.254 9.19zm10.508 1.53l-5.254 9.188-5.254-9.187zm-13.135 0l-5.254 9.188-5.254-9.187zm-36.779 0h10.507L12.15 54.36zm-1.315.768l5.254 9.189H.33zm26.272 0l5.254 9.189H26.6zm13.136 0l5.253 9.189H39.738zm18.387 9.189H52.873l5.252-9.189z"/><path d="M31.854 19.905L26.6 10.713h10.508zm-1.314.766H20.032l5.254-9.191zm2.628 0l5.254-9.191 5.254 9.191zm10.508 1.53l-5.254 9.189-5.254-9.188zm-13.136 0l-5.254 9.189-5.254-9.188zm-11.822.766l5.253 9.187H13.465zm21.02 9.187l5.252-9.187 5.253 9.187zm-2.63-22.97H26.6l5.254-9.19zm2.63 24.502h10.505l-5.253 9.188zm-26.273 0H23.97l-5.253 9.188zm-1.314.765l5.253 9.19H6.897zm34.152 9.19l5.254-9.19 5.254 9.19zm10.508 1.53l-5.254 9.188-5.254-9.187zm-13.135 0l-5.254 9.188-5.254-9.187zm-36.779 0h10.507L12.15 54.36zm-1.315.768l5.254 9.189H.33zm26.272 0l5.254 9.189H26.6zm13.136 0l5.253 9.189H39.738zm18.387 9.189H52.873l5.252-9.189z"/></g></g>
    </symbol>

</svg>